<svg width="143" xmlns="http://www.w3.org/2000/svg" height="48" id="screenshot-f08a2a31-fc5d-808b-8006-118a0157a1b3" viewBox="0 0 143 48" xmlns:xlink="http://www.w3.org/1999/xlink" fill="none" version="1.1"><g id="shape-f08a2a31-fc5d-808b-8006-118a0157a1b3"><g class="frame-container-wrapper"><g class="frame-container-blur"><g class="frame-container-shadows"><g fill="none"><g class="fills" id="fills-f08a2a31-fc5d-808b-8006-118a0157a1b3"><rect rx="0" ry="0" x="0" y="0" width="143" height="48" transform="matrix(1.000000, 0.000000, 0.000000, 1.000000, 0.000000, 0.000000)" class="frame-background"/></g><g class="frame-children"><g id="shape-f08a2a31-fc5d-808b-8006-1189c6ee1334" width="65.1" height="21.9" xml:space="preserve" rx="0" ry="0" style="fill: rgb(255, 107, 53);"><g id="shape-f08a2a31-fc5d-808b-8006-1189c6eedf83" style="display: none;"><g class="fills" id="fills-f08a2a31-fc5d-808b-8006-1189c6eedf83"><rect width="143" height="48" x="0" transform="matrix(1.000000, 0.000000, 0.000000, 1.000000, 0.000000, 0.000000)" style="fill: none;" ry="0" fill="none" rx="0" y="0"/></g></g><g id="shape-f08a2a31-fc5d-808b-8006-1189c6effde8"><g class="fills" id="fills-f08a2a31-fc5d-808b-8006-1189c6effde8"><path d="M49.424,33.753L51.401,24.329C51.621,23.452,51.621,22.795,51.401,22.137C51.181,21.479,50.962,20.822,50.303,20.164C49.863,19.507,49.204,19.068,48.545,18.849C47.886,18.411,47.008,18.411,46.349,18.411L45.470,18.411C46.788,18.411,47.886,17.973,48.765,17.315C49.644,16.219,50.303,15.342,50.522,14.027L51.840,7.671C52.060,6.575,52.060,5.699,51.840,4.822C51.621,3.945,51.181,3.068,50.522,2.411C49.863,1.753,49.204,1.096,48.326,0.658C47.447,0.219,46.349,0.000,45.470,0.000L10.324,0.000L0.000,0.000L7.908,2.411C9.006,2.630,9.445,3.726,9.226,4.822L2.416,39.014L43.054,39.014C44.591,39.014,45.909,38.575,47.227,37.479C48.326,36.603,49.204,35.288,49.424,33.753ZZM20.868,9.205L38.221,9.205C38.661,9.205,38.880,9.425,39.320,9.644C39.539,9.863,39.539,10.301,39.539,10.740L39.100,13.370C38.880,14.027,38.441,14.466,37.782,14.466L19.770,14.466L20.868,9.205ZZM39.759,23.671L38.661,28.932C38.661,29.151,38.441,29.370,38.221,29.589C38.002,29.808,37.782,30.027,37.343,30.027L16.694,30.027L18.232,22.137L38.441,22.137C38.880,22.137,39.100,22.356,39.320,22.575C39.759,23.014,39.759,23.233,39.759,23.671ZZ"/></g></g><g id="shape-f08a2a31-fc5d-808b-8006-1189c6f02be0"><g class="fills" id="fills-f08a2a31-fc5d-808b-8006-1189c6f02be0"><path d="M59.968,39.233C60.846,39.233,61.725,38.575,61.945,37.699L63.922,28.274L78.200,28.274L83.252,39.233L92.917,39.233C93.796,39.233,94.455,38.137,94.235,37.260L90.061,28.055L92.258,28.055C94.015,28.055,95.553,27.616,96.871,26.521C97.969,25.644,98.628,24.329,99.068,22.795L102.143,7.671C102.363,6.575,102.363,5.699,102.143,4.822C101.923,3.945,101.484,3.068,100.825,2.411C100.166,1.753,99.507,1.096,98.628,0.658C97.750,0.219,96.871,0.000,95.773,0.000L57.771,0.000L49.863,39.014L59.968,39.014ZM67.656,9.205L88.304,9.205C88.743,9.205,88.963,9.425,89.183,9.644C89.402,9.863,89.402,10.301,89.402,10.740L88.084,17.973C88.084,18.192,87.865,18.411,87.645,18.630C87.425,18.849,87.206,18.849,86.767,18.849L65.679,18.849L67.656,9.205ZZ"/></g></g><g id="shape-f08a2a31-fc5d-808b-8006-1189c6f02be1"><g class="fills" id="fills-f08a2a31-fc5d-808b-8006-1189c6f02be1"><path d="M141.023,0.219L133.994,0.219C133.555,0.219,133.115,0.438,132.896,0.658L114.224,14.247L116.421,2.630C116.641,1.315,115.762,0.219,114.444,0.219L105.218,0.219L97.310,39.233L107.415,39.233C108.293,39.233,109.172,38.575,109.392,37.699L111.369,27.616L116.641,23.452L127.184,39.233L137.069,39.233C138.607,39.233,139.705,37.479,138.826,36.164L125.647,16.438L142.121,3.726C143.659,2.630,142.780,0.219,141.023,0.219ZZ"/></g></g><g id="shape-f08a2a31-fc5d-808b-8006-1189c6f04d79"><g class="fills" id="fills-f08a2a31-fc5d-808b-8006-1189c6f04d79"><path d="M141.462,43.397L1.757,43.397L1.098,46.466C0.879,47.342,1.538,48.000,2.416,48.000L142.121,48.000L142.780,44.932C143.000,44.274,142.341,43.397,141.462,43.397ZZ"/></g></g></g></g></g></g></g></g></g></svg>